<svg width="320" height="200" xmlns="http://www.w3.org/2000/svg" xmlns:xlink="http://www.w3.org/1999/xlink"><defs><linearGradient x1="107.186%" y1="92.919%" x2="24.688%" y2="11.504%" id="b"><stop stop-color="#6F97F5" offset="0%"/><stop stop-color="#3C64C2" offset="100%"/></linearGradient><path id="a" d="M0 0h320v200H0z"/><rect id="e" x="34.175" y="-2.5" width="69.903" height="93.25" rx="2"/><filter y="-5.4%" height="115%" filterUnits="objectBoundingBox" id="d"><feOffset dy="2" in="SourceAlpha" result="shadowOffsetOuter1"/><feGaussianBlur stdDeviation="2" in="shadowOffsetOuter1" result="shadowBlurOuter1"/><feColorMatrix values="0 0 0 0 0 0 0 0 0 0 0 0 0 0 0 0 0 0 0.1 0" in="shadowBlurOuter1"/></filter><rect id="g" x="34" y="47" width="125" height="93" rx="2"/><filter x="-5.6%" y="-5.4%" width="111.2%" height="115.1%" filterUnits="objectBoundingBox" id="f"><feOffset dy="2" in="SourceAlpha" result="shadowOffsetOuter1"/><feGaussianBlur stdDeviation="2" in="shadowOffsetOuter1" result="shadowBlurOuter1"/><feColorMatrix values="0 0 0 0 0.294117647 0 0 0 0 0.207843137 0 0 0 0 0.937254902 0 0 0 0.1 0" in="shadowBlurOuter1"/></filter><rect id="i" x="111" y="91" width="69.903" height="93.25" rx="2"/><filter y="-5.4%" height="115%" filterUnits="objectBoundingBox" id="h"><feOffset dy="2" in="SourceAlpha" result="shadowOffsetOuter1"/><feGaussianBlur stdDeviation="2" in="shadowOffsetOuter1" result="shadowBlurOuter1"/><feColorMatrix values="0 0 0 0 0.294117647 0 0 0 0 0.207843137 0 0 0 0 0.937254902 0 0 0 0.1 0" in="shadowBlurOuter1"/></filter><path d="M187.746 171v26.254a2 2 0 0 1-2 2H135a2 2 0 0 1-2-2V171a2 2 0 0 1 2-2h50.746a2 2 0 0 1 2 2z" id="k"/><filter x="-12.8%" y="-16.5%" width="125.6%" height="146.3%" filterUnits="objectBoundingBox" id="j"><feOffset dy="2" in="SourceAlpha" result="shadowOffsetOuter1"/><feGaussianBlur stdDeviation="2" in="shadowOffsetOuter1" result="shadowBlurOuter1"/><feColorMatrix values="0 0 0 0 0.235294118 0 0 0 0 0.392156863 0 0 0 0 0.760784314 0 0 0 0.1 0" in="shadowBlurOuter1"/></filter></defs><g fill="none" fill-rule="evenodd"><mask id="c" fill="#fff"><use xlink:href="#a"/></mask><use fill="url(#b)" xlink:href="#a"/><rect fill="#3C64C2" opacity=".638" mask="url(#c)" x="104" y="-3" width="125" height="93" rx=".4"/><rect fill="#3C64C2" mask="url(#c)" x="-21" width="125.049" height="93.25" rx="2"/><g opacity=".826" mask="url(#c)"><use fill="#000" filter="url(#d)" xlink:href="#e"/><use fill="#4C7EF3" xlink:href="#e"/></g><path d="M33.87 23.39V88.8a2 2 0 0 1-2 2h-89.676a2 2 0 0 1-2-2V23.39a2 2 0 0 1 2-2h89.677a2 2 0 0 1 2 2z" fill="#3C64C2" opacity=".783" mask="url(#c)"/><g mask="url(#c)"><use fill="#000" filter="url(#f)" xlink:href="#g"/><use fill="#4877E7" xlink:href="#g"/></g><g mask="url(#c)"><use fill="#000" filter="url(#h)" xlink:href="#i"/><use fill="#4C7EF3" xlink:href="#i"/></g><g opacity=".844" mask="url(#c)"><use fill="#000" filter="url(#j)" xlink:href="#k"/><use fill="#6F97F5" xlink:href="#k"/></g><g mask="url(#c)" fill="#FFF"><path fill-opacity=".2" style="mix-blend-mode:overlay" d="M124 59h71.007L188 133l-28.496 8L131 133z"/><path d="M186.921 131.453l-27.22 7.566-27.134-7.551-6.285-70.668h66.93l-6.29 70.653zM121.048 56l7.044 79.203L159.7 144l31.696-8.809L198.446 56h-77.398z"/><path d="M137.491 78.133h39.714l-1.424 16.004-25.267.001.43 4.797 24.417-.002-1.634 18.215-13.117 3.55-.695.28-.887-.232-13.262-3.59-.68-7.604h-4.801l1.002 11.264 18.445 5.132 18.47-5.134 4.23-47.478h-45.37z"/></g></g></svg>