<svg width="320" height="200" xmlns="http://www.w3.org/2000/svg" xmlns:xlink="http://www.w3.org/1999/xlink"><defs><linearGradient x1="107.186%" y1="92.919%" x2="24.688%" y2="11.504%" id="b"><stop stop-color="#6F97F5" offset="0%"/><stop stop-color="#3C64C2" offset="100%"/></linearGradient><path id="a" d="M0 0h320v200H0z"/><rect id="e" x="97" y="31" width="69.903" height="93.25" rx="2"/><filter y="-5.4%" height="115%" filterUnits="objectBoundingBox" id="d"><feOffset dy="2" in="SourceAlpha" result="shadowOffsetOuter1"/><feGaussianBlur stdDeviation="2" in="shadowOffsetOuter1" result="shadowBlurOuter1"/><feColorMatrix values="0 0 0 0 0 0 0 0 0 0 0 0 0 0 0 0 0 0 0.1 0" in="shadowBlurOuter1"/></filter><rect id="g" x="78" y="57" width="115" height="86" rx="2"/><filter x="-6.1%" y="-5.8%" width="112.2%" height="116.3%" filterUnits="objectBoundingBox" id="f"><feOffset dy="2" in="SourceAlpha" result="shadowOffsetOuter1"/><feGaussianBlur stdDeviation="2" in="shadowOffsetOuter1" result="shadowBlurOuter1"/><feColorMatrix values="0 0 0 0 0.294117647 0 0 0 0 0.207843137 0 0 0 0 0.937254902 0 0 0 0.1 0" in="shadowBlurOuter1"/></filter><rect id="i" x="169" y="119" width="69.903" height="93.25" rx="2"/><filter y="-5.4%" height="115%" filterUnits="objectBoundingBox" id="h"><feOffset dy="2" in="SourceAlpha" result="shadowOffsetOuter1"/><feGaussianBlur stdDeviation="2" in="shadowOffsetOuter1" result="shadowBlurOuter1"/><feColorMatrix values="0 0 0 0 0 0 0 0 0 0 0 0 0 0 0 0 0 0 0.1 0" in="shadowBlurOuter1"/></filter><filter x="-7.8%" y="-5.6%" width="115.6%" height="115.6%" filterUnits="objectBoundingBox" id="j"><feOffset dy="2" in="SourceAlpha" result="shadowOffsetOuter1"/><feGaussianBlur stdDeviation="2" in="shadowOffsetOuter1" result="shadowBlurOuter1"/><feColorMatrix values="0 0 0 0 0.145098039 0 0 0 0 0.00392156863 0 0 0 0 0.474509804 0 0 0 0.1 0" in="shadowBlurOuter1" result="shadowMatrixOuter1"/><feMerge><feMergeNode in="shadowMatrixOuter1"/><feMergeNode in="SourceGraphic"/></feMerge></filter></defs><g fill="none" fill-rule="evenodd"><mask id="c" fill="#fff"><use xlink:href="#a"/></mask><use fill="url(#b)" xlink:href="#a"/><rect fill="#3C64C2" mask="url(#c)" x="176" y="119" width="125" height="93" rx=".4"/><rect fill="#3C64C2" mask="url(#c)" x="51" y="135" width="125.049" height="93.25" rx="2"/><g opacity=".316" mask="url(#c)"><use fill="#000" filter="url(#d)" xlink:href="#e"/><use fill="#4C7EF3" xlink:href="#e"/></g><g opacity=".908" mask="url(#c)"><use fill="#000" filter="url(#f)" xlink:href="#g"/><use fill="#4C7EF3" xlink:href="#g"/></g><g opacity=".494" mask="url(#c)"><use fill="#000" filter="url(#h)" xlink:href="#i"/><use fill="#4C7EF3" xlink:href="#i"/></g><g filter="url(#j)" mask="url(#c)" fill-rule="nonzero" fill="#FFF"><path d="M115 100c0-12.422 4.395-23.027 13.184-31.816C136.973 59.394 147.578 55 160 55s23.027 4.395 31.816 13.184C200.606 76.973 205 87.578 205 100s-4.395 23.027-13.184 31.816C183.027 140.606 172.422 145 160 145s-23.027-4.395-31.816-13.184C119.394 123.027 115 112.422 115 100zm4.922 0c0 11.016 3.926 20.45 11.777 28.3 7.852 7.852 17.285 11.778 28.301 11.778 11.016 0 20.45-3.926 28.3-11.777 7.852-7.852 11.778-17.285 11.778-28.301 0-11.016-3.926-20.45-11.777-28.3-7.852-7.852-17.285-11.778-28.301-11.778-11.016 0-20.45 3.926-28.3 11.777-7.852 7.852-11.778 17.285-11.778 28.301zm12.656 9.668c-.234-.234-.234-.469 0-.703.469-.469 1.055-.645 1.758-.528.703.118 1.113.235 1.23.352.82.352 1.729 1.143 2.725 2.373.996 1.23 1.787 2.08 2.373 2.549 2.813 2.344 5.684 2.52 8.613.527a5.264 5.264 0 0 1 1.143-2.11c.527-.585 1.025-.995 1.494-1.23.469-.234 1.29-.586 2.461-1.054-3.867-.352-7.002-1.026-9.404-2.022-2.403-.996-4.307-2.256-5.713-3.78-1.875-2.109-3.018-4.862-3.428-8.26-.41-3.4-.147-6.505.791-9.317.703-1.758 1.7-3.34 2.988-4.746-.937-2.93-.762-6.27.528-10.02 3.75.234 7.148 1.524 10.195 3.867 5.86-1.523 11.953-1.582 18.281-.175.82-.586 2.08-1.319 3.78-2.198 1.698-.879 3.837-1.377 6.415-1.494.469 1.29.791 2.813.967 4.57.176 1.758.088 3.399-.264 4.922 2.696 2.813 4.102 6.563 4.22 11.25 0 3.75-.645 6.856-1.934 9.317-1.29 2.46-3.575 4.511-6.856 6.152-2.226 1.055-5.156 1.7-8.789 1.933 1.64.82 2.842 1.67 3.604 2.55.761.878 1.26 2.255 1.494 4.13v5.537l.176 5.362a6.212 6.212 0 0 0 1.23 1.494c.469.41.88.703 1.23.879.352.176.47.44.352.79-.117.352-.586.528-1.406.528-1.992 0-3.574-.703-4.746-2.11-.352-.585-.527-1.288-.527-2.109v-8.437c0-.938-.235-1.611-.704-2.022-.468-.41-.937-.674-1.406-.79v11.073c0 1.993.235 3.282.703 3.868.469.586.762 1.172.88 1.757.116.118.029.206-.264.264-.293.059-.791-.03-1.495-.264-1.523-.351-2.578-1.142-3.164-2.373a9.082 9.082 0 0 1-.879-3.955v-10.898h-2.285v10.899a9.662 9.662 0 0 1-.879 4.043c-.82 1.64-2.343 2.519-4.57 2.636-.352-.117-.527-.234-.527-.351.117-.118.468-.703 1.054-1.758.118-.234.264-.703.44-1.406s.264-1.524.264-2.461v-11.075c-.47.118-.909.381-1.319.792-.41.41-.615 1.084-.615 2.021v8.438c0 .82-.176 1.523-.527 2.109-1.055 1.406-2.637 2.11-4.746 2.11-.82 0-1.29-.176-1.407-.528-.117-.234-.088-.44.088-.615.176-.176.44-.381.791-.616.352-.234.586-.41.703-.527a3.2 3.2 0 0 0 1.055-1.406c.352-.469.44-1.7.264-3.692-.176-1.992-.205-3.28-.088-3.867-3.047 1.055-6.153.528-9.317-1.582-.937-.937-1.875-2.285-2.812-4.043-.703-1.289-2.11-2.812-4.219-4.57z"/></g><g mask="url(#c)" fill-rule="nonzero" fill="#80A4F8"><path d="M205 40v3h1.5v21a6 6 0 1 0 12 0V43h1.5v-3h-15zm6 21c-.9 0-1.5-.6-1.5-1.5s.6-1.5 1.5-1.5 1.5.6 1.5 1.5-.6 1.5-1.5 1.5zm3-6c-.9 0-1.5-.6-1.5-1.5s.6-1.5 1.5-1.5 1.5.6 1.5 1.5-.6 1.5-1.5 1.5zm1.5-7.5h-6V43h6v4.5z"/></g><g mask="url(#c)" fill-rule="nonzero" fill="#4C7EF3"><path d="M54 91v3h1.5v21a6 6 0 1 0 12 0V94H69v-3H54zm6 21c-.9 0-1.5-.6-1.5-1.5s.6-1.5 1.5-1.5 1.5.6 1.5 1.5-.6 1.5-1.5 1.5zm3-6c-.9 0-1.5-.6-1.5-1.5s.6-1.5 1.5-1.5 1.5.6 1.5 1.5-.6 1.5-1.5 1.5zm1.5-7.5h-6V94h6v4.5z"/></g><g mask="url(#c)" fill-rule="nonzero" fill="#3C64C2"><path d="M251 86v3h1.5v21a6 6 0 1 0 12 0V89h1.5v-3h-15zm6 21c-.9 0-1.5-.6-1.5-1.5s.6-1.5 1.5-1.5 1.5.6 1.5 1.5-.6 1.5-1.5 1.5zm3-6c-.9 0-1.5-.6-1.5-1.5s.6-1.5 1.5-1.5 1.5.6 1.5 1.5-.6 1.5-1.5 1.5zm1.5-7.5h-6V89h6v4.5z"/></g></g></svg>