<svg width="320" height="200" xmlns="http://www.w3.org/2000/svg" xmlns:xlink="http://www.w3.org/1999/xlink"><defs><linearGradient x1="107.186%" y1="92.919%" x2="24.688%" y2="11.504%" id="b"><stop stop-color="#6F97F5" offset="0%"/><stop stop-color="#3C64C2" offset="100%"/></linearGradient><path id="a" d="M0 0h320v200H0z"/><rect id="e" x="194.175" y="37.5" width="69.903" height="93.25" rx="2"/><filter y="-5.4%" height="115%" filterUnits="objectBoundingBox" id="d"><feOffset dy="2" in="SourceAlpha" result="shadowOffsetOuter1"/><feGaussianBlur stdDeviation="2" in="shadowOffsetOuter1" result="shadowBlurOuter1"/><feColorMatrix values="0 0 0 0 0 0 0 0 0 0 0 0 0 0 0 0 0 0 0.1 0" in="shadowBlurOuter1"/></filter><rect id="g" x="70" y="131" width="125" height="93" rx="2"/><filter x="-5.6%" y="-5.4%" width="111.2%" height="115.1%" filterUnits="objectBoundingBox" id="f"><feOffset dy="2" in="SourceAlpha" result="shadowOffsetOuter1"/><feGaussianBlur stdDeviation="2" in="shadowOffsetOuter1" result="shadowBlurOuter1"/><feColorMatrix values="0 0 0 0 0.294117647 0 0 0 0 0.207843137 0 0 0 0 0.937254902 0 0 0 0.1 0" in="shadowBlurOuter1"/></filter><rect id="i" x="271" y="131" width="69.903" height="93.25" rx="2"/><filter y="-5.4%" height="115%" filterUnits="objectBoundingBox" id="h"><feOffset dy="2" in="SourceAlpha" result="shadowOffsetOuter1"/><feGaussianBlur stdDeviation="2" in="shadowOffsetOuter1" result="shadowBlurOuter1"/><feColorMatrix values="0 0 0 0 0 0 0 0 0 0 0 0 0 0 0 0 0 0 0.1 0" in="shadowBlurOuter1"/></filter><path d="M220.746 118v26.254a2 2 0 0 1-2 2H168a2 2 0 0 1-2-2V118a2 2 0 0 1 2-2h50.746a2 2 0 0 1 2 2z" id="k"/><filter x="-12.8%" y="-16.5%" width="125.6%" height="146.3%" filterUnits="objectBoundingBox" id="j"><feOffset dy="2" in="SourceAlpha" result="shadowOffsetOuter1"/><feGaussianBlur stdDeviation="2" in="shadowOffsetOuter1" result="shadowBlurOuter1"/><feColorMatrix values="0 0 0 0 0.235294118 0 0 0 0 0.392156863 0 0 0 0 0.760784314 0 0 0 0.1 0" in="shadowBlurOuter1"/></filter></defs><g fill="none" fill-rule="evenodd"><mask id="c" fill="#fff"><use xlink:href="#a"/></mask><use fill="url(#b)" xlink:href="#a"/><rect fill="#3C64C2" mask="url(#c)" x="195" y="131" width="125" height="93" rx=".4"/><rect fill="#3C64C2" mask="url(#c)" x="194.175" y="37.5" width="125.049" height="93.25" rx="2"/><g opacity=".826" mask="url(#c)"><use fill="#000" filter="url(#d)" xlink:href="#e"/><use fill="#4C7EF3" xlink:href="#e"/></g><rect fill="#4C7EF3" opacity=".783" mask="url(#c)" y="131" width="70" height="93" rx="2"/><path d="M198.676 86v65.41a2 2 0 0 1-2 2H107a2 2 0 0 1-2-2V86a2 2 0 0 1 2-2h89.676a2 2 0 0 1 2 2z" fill="#3C64C2" opacity=".783" mask="url(#c)"/><g mask="url(#c)"><use fill="#000" filter="url(#f)" xlink:href="#g"/><use fill="#4C7EF3" xlink:href="#g"/></g><g opacity=".826" mask="url(#c)"><use fill="#000" filter="url(#h)" xlink:href="#i"/><use fill="#4C7EF3" xlink:href="#i"/></g><g opacity=".844" mask="url(#c)"><use fill="#000" filter="url(#j)" xlink:href="#k"/><use fill="#6F97F5" xlink:href="#k"/></g><g mask="url(#c)" fill="#FFF"><path fill-opacity=".3" style="mix-blend-mode:overlay" d="M123 57h72.007L190 133l-30.997 7L130 133z"/><path d="M186.96 131.453l-27.255 7.566-27.167-7.551-6.293-70.668h67.013l-6.298 70.653zM121.005 56l7.053 79.203L159.705 144l31.735-8.809L198.5 56h-77.495z"/><path d="M140.29 99.105h34.061l-1.518 16.985-13.02 3.57-.74-.194-12.462-3.368-.644-7.216h-4.805l.969 10.878 17.577 4.886 17.603-4.886 2.27-25.449h-34.915l-1.324-14.867h37.563l.43-4.794h-43.224z"/></g></g></svg>