<svg width="320" height="200" xmlns="http://www.w3.org/2000/svg" xmlns:xlink="http://www.w3.org/1999/xlink"><defs><linearGradient x1="107.186%" y1="92.919%" x2="24.688%" y2="11.504%" id="b"><stop stop-color="#54D2D2" offset="0%"/><stop stop-color="#2AA6A6" offset="100%"/></linearGradient><path id="a" d="M0 0h320v200H0z"/><path d="M129.495-21.237c5.834-3.983 13.857-3.386 19.034 1.792 5.852 5.852 5.852 15.34 0 21.193l-114.37 114.37c-3.846 5.817-3.207 13.727 1.916 18.85 5.064 5.064 12.851 5.746 18.649 2.046l71.602-71.603c5.853-5.852 15.341-5.852 21.194 0 5.852 5.852 5.852 15.341 0 21.194L-48.483 282.608c-5.853 5.852-15.342 5.852-21.194 0-5.852-5.852-5.852-15.341 0-21.194l30.511-30.51c-5.887 5.153-14.844 4.923-20.457-.69-5.853-5.852-5.853-15.34 0-21.193l32.448-32.449c-5.68 3.072-12.924 2.208-17.723-2.59-5.852-5.853-5.852-15.342 0-21.194l19.03-19.03c-5.835 3.983-13.857 3.386-19.035-1.792-5.852-5.852-5.852-15.34 0-21.193L134.478-68.608c5.853-5.852 15.341-5.852 21.194 0 5.852 5.852 5.852 15.341 0 21.194l-26.177 26.177z" id="e"/><filter x="-3%" y="-1.4%" width="106%" height="103.9%" filterUnits="objectBoundingBox" id="d"><feOffset dy="2" in="SourceAlpha" result="shadowOffsetOuter1"/><feGaussianBlur stdDeviation="2" in="shadowOffsetOuter1" result="shadowBlurOuter1"/><feColorMatrix values="0 0 0 0 0.102 0 0 0 0 0.482 0 0 0 0 0.447 0 0 0 0.152173913 0" in="shadowBlurOuter1"/></filter><path d="M18.482 194.518c-3.854 5.824-3.216 13.745 1.913 18.875 5.133 5.133 13.061 5.768 18.886 1.906l100.106-100.106c5.858-5.858 15.356-5.858 21.214 0 5.784 5.784 5.857 15.115.22 20.989l.173-.172c-4.405 5.875-3.936 14.247 1.408 19.59 5.858 5.86 15.356 5.86 21.214 0L340.609-1.391c5.858-5.858 5.858-15.356 0-21.214-5.858-5.859-15.356-5.859-21.214 0l-58.68 58.679c4.406-5.876 3.936-14.248-1.407-19.591-5.859-5.858-15.356-5.858-21.215 0l-57.8 57.8c-5.825 3.867-13.756 3.233-18.891-1.902-5.28-5.28-5.801-13.517-1.563-19.38.111-.144.22-.288.325-.434.303-.389.628-.766.975-1.13l-.625.624c3.855-5.824 3.217-13.745-1.913-18.875-5.858-5.858-15.356-5.858-21.214 0L-19.606 190.178c-5.859 5.859-5.859 15.357 0 21.215 5.858 5.858 15.356 5.858 21.214 0l16.874-16.875z" id="g"/><filter x="-11%" y="-8.8%" width="122%" height="135.1%" filterUnits="objectBoundingBox" id="f"><feOffset dy="24" in="SourceAlpha" result="shadowOffsetOuter1"/><feGaussianBlur stdDeviation="9.5" in="shadowOffsetOuter1" result="shadowBlurOuter1"/><feColorMatrix values="0 0 0 0 0.0218855219 0 0 0 0 0.619047619 0 0 0 0 0.563640827 0 0 0 0.1 0" in="shadowBlurOuter1"/></filter></defs><g fill="none" fill-rule="evenodd"><mask id="c" fill="#fff"><use xlink:href="#a"/></mask><use fill="url(#b)" xlink:href="#a"/><path d="M223.853 71.417c2.07-5.37.94-11.69-3.392-16.02-5.862-5.862-15.365-5.862-21.227 0l-97.833 97.833c-5.862 5.861-5.862 15.365 0 21.226 5.417 5.418 13.946 5.828 19.835 1.23a15.046 15.046 0 0 0 .977 12.868l-27.817 27.817c-5.861 5.861-5.861 15.365 0 21.227 5.862 5.861 15.365 5.861 21.227 0l97.833-97.834c4.898-4.898 5.704-12.339 2.416-18.073l27.817-27.816c5.861-5.862 5.861-15.365 0-21.227-5.418-5.418-13.947-5.828-19.836-1.23z" fill="#1C9393" mask="url(#c)"/><g mask="url(#c)"><use fill="#000" filter="url(#d)" xlink:href="#e"/><use fill="#2BBABA" xlink:href="#e"/></g><g mask="url(#c)"><g transform="translate(-5 60)"><rect fill="#1C9393" transform="rotate(45 97.263 132.263)" x="90.263" y="116.263" width="14" height="32" rx="7"/><rect fill="#31C9C9" transform="rotate(45 42.892 22.892)" x="35.892" y="-2.482" width="14" height="50.749" rx="7"/><rect fill="#2AA6A6" transform="rotate(45 9.9 55.9)" x="2.899" y="48.899" width="14" height="14" rx="7"/></g></g><path d="M181.225-43.681c5.81-3.705 13.61-3.02 18.683 2.053 5.865 5.864 5.865 15.372 0 21.237l-39.4 39.4c-4.015 5.848-3.424 13.908 1.774 19.106 4.82 4.82 12.102 5.678 17.799 2.575l.157-.157c5.864-5.865 15.373-5.865 21.237 0 5.865 5.864 5.865 15.372 0 21.237L77.635 185.61c-5.864 5.864-15.372 5.864-21.237 0-5.864-5.865-5.864-15.373 0-21.238l30.027-30.026c-5.897 4.76-14.559 4.401-20.039-1.078-4.762-4.763-5.657-11.928-2.685-17.594l56.117-56.116c5.864-5.865 5.864-15.373 0-21.237-5.07-5.07-12.862-5.757-18.67-2.062-5.895 4.694-14.503 4.313-19.958-1.142-5.865-5.865-5.865-15.373 0-21.237l97.481-97.482c5.865-5.864 15.373-5.864 21.237 0 5.865 5.865 5.865 15.373 0 21.238l-18.683 18.683z" fill="#1C9393" mask="url(#c)"/><g mask="url(#c)"><use fill="#000" filter="url(#f)" xlink:href="#g"/><use fill="#31C9C9" xlink:href="#g"/></g><g mask="url(#c)" fill="#FFF"><path style="mix-blend-mode:overlay" opacity=".3" d="M121 60h79v79h-79z"/><path d="M125.41 135.2h70.4V64.8h-70.4v70.4zm-4.799 4.8h80V60h-80v80z"/><path d="M182.955 123.696c-.598.44-1.27.776-1.945.971-2.903.841-7.01.501-9.832-2.979a20.721 20.721 0 0 1-.575-.746l-3.861 2.235a11.768 11.768 0 0 0 3.618 3.63c1.815 1.166 3.872 1.85 6.286 2.091 2.55.255 4.796.042 6.864-.652 2.35-.789 4.009-2.077 5.068-3.938.805-1.417 1.143-3.026 1.062-5.065-.112-2.779-1.174-4.942-3.247-6.61-1.554-1.25-3.334-2.157-5.528-3.133-.38-.169-.762-.336-1.144-.502a68.315 68.315 0 0 1-3.027-1.38 9.535 9.535 0 0 1-2.144-1.485c-1.12-1.025-1.62-2.8-1.246-4.416.374-1.61 1.533-2.813 3.18-3.298 1.062-.31 2.208-.32 3.412-.026 1.358.333 2.498 1.147 3.476 2.485l3.583-2.3c-1.116-1.622-2.423-2.728-3.973-3.365-2.43-.997-5.072-1.168-7.86-.508-2.494.59-4.296 1.875-5.51 3.93-.855 1.45-1.21 3.133-1.08 5.146.157 2.46 1.057 4.414 2.752 5.972 1.526 1.404 3.412 2.34 5.055 3.07l.944.418c1.352.598 2.75 1.216 4.11 1.878.732.356 1.44.856 2.049 1.447a4.67 4.67 0 0 1 1.42 3.671 4.683 4.683 0 0 1-1.907 3.46M144.616 128c2.936 1.259 6.051 1.373 9.257.335 2.464-.797 4.089-2.432 4.969-5 .441-1.288.639-2.711.64-4.613l-.001-23.932h-4.801v4.159c.001 6.56.001 13.12-.006 19.68a14.621 14.621 0 0 1-.157 2.172c-.097.646-.396 2.615-2.25 3.527-2.089 1.025-4.186.939-6.068-.247-.934-.59-1.535-1.408-2.045-2.205l-.142-.225-3.851 2.33c1.131 1.903 2.595 3.222 4.455 4.019"/></g></g></svg>